<?xml version="1.0" encoding="UTF-8"?>
<svg width="64px" height="90px" viewBox="0 0 64 90" version="1.1"
  xmlns="http://www.w3.org/2000/svg"
  xmlns:xlink="http://www.w3.org/1999/xlink">
  <title>logo-aardbei</title>
  <g id="logo-aardbei" transform="translate(0.723041, 0.275488)" fill="#FF5D5D" fill-rule="nonzero">
    <path d="M33.1089594,15.494512 C33.0620844,16.572612 32.1480194,17.408612 31.0737594,17.361712 C29.9956594,17.314837 29.1596594,16.400772 29.2065594,15.326512 C29.4565594,9.57261196 32.1596594,4.70151196 36.7182594,0.514511961 C37.5112294,-0.215958039 38.7494594,-0.161268039 39.4760594,0.631701961 C40.2065294,1.42467196 40.1518394,2.66290196 39.3588694,3.38950196 C35.6205694,6.82700196 33.3119694,10.776202 33.1088694,15.494502 L33.1089594,15.494512 Z" id="Path"></path>
    <path d="M58.7969594,25.970512 C61.2227594,29.404112 62.6446594,33.868912 62.5157594,39.634512 C62.0743494,59.536512 38.1207594,88.271512 31.2617594,89.419512 C24.3984594,88.271112 0.44575939,59.536512 0.00775938999,39.634512 C-0.14849061,32.493912 2.06635939,27.345512 5.62885939,23.685512 C5.95698939,23.919882 6.31635939,24.115202 6.69915939,24.263632 C10.2343594,25.642532 12.8202594,26.415932 15.4257594,26.552732 C15.2773194,27.439452 15.1718494,28.443332 15.1015394,29.626932 C15.0156014,31.048832 15.5546594,32.439432 16.5781394,33.431632 C17.6054394,34.427722 19.0156394,34.919932 20.4414394,34.783232 C20.4492524,34.783232 20.4570654,34.783232 20.4648774,34.779326 C25.1718774,34.298856 29.4375774,32.525426 32.5078774,29.720726 C32.7266274,30.017606 32.9531874,30.310566 33.1836574,30.591816 C34.7695574,32.513716 36.6641574,34.150416 39.8945574,35.337916 C42.2734574,36.216826 44.9257574,35.123076 46.0000574,32.830116 C46.0000574,32.826209 46.0039634,32.826209 46.0039634,32.822303 C46.8281834,31.048903 47.2930634,29.404303 47.5312634,27.951203 C50.6757634,28.330113 54.7617634,28.146513 58.7502634,25.994203 C58.7580764,25.990297 58.7658884,25.986391 58.7737014,25.982484 C58.7815134,25.978578 58.7932324,25.970766 58.8010454,25.96686 L58.7969594,25.970512 Z M12.3629594,39.193512 L12.3629594,41.970812 C12.3629594,43.048912 13.2379594,43.923912 14.3160594,43.923912 C15.3941594,43.923912 16.2691594,43.048912 16.2691594,41.970812 L16.2691594,39.193512 C16.2691594,38.115412 15.3941594,37.240412 14.3160594,37.240412 C13.2379594,37.240412 12.3629594,38.115412 12.3629594,39.193512 Z M29.3079594,70.966512 L29.3079594,73.743812 C29.3079594,74.821912 30.1829594,75.696912 31.2610594,75.696912 C32.3391594,75.696912 33.2141594,74.821912 33.2141594,73.743812 L33.2141594,70.966512 C33.2141594,69.888412 32.3391594,69.013412 31.2610594,69.013412 C30.1829594,69.013412 29.3079594,69.888412 29.3079594,70.966512 Z M37.7806594,56.138512 L37.7806594,58.915812 C37.7806594,59.993912 38.6556594,60.868912 39.7337594,60.868912 C40.8118594,60.868912 41.6868594,59.993912 41.6868594,58.915812 L41.6868594,56.138512 C41.6868594,55.060412 40.8118594,54.185412 39.7337594,54.185412 C38.6556594,54.185412 37.7806594,55.060412 37.7806594,56.138512 Z M20.8356594,56.138512 L20.8356594,58.915812 C20.8356594,59.993912 21.7106594,60.868912 22.7887594,60.868912 C23.8668594,60.868912 24.7418594,59.993912 24.7418594,58.915812 L24.7418594,56.138512 C24.7418594,55.060412 23.8668594,54.185412 22.7887594,54.185412 C21.7106594,54.185412 20.8356594,55.060412 20.8356594,56.138512 Z M29.3083594,39.193512 L29.3083594,41.970812 C29.3083594,43.048912 30.1833594,43.923912 31.2614594,43.923912 C32.3395594,43.923912 33.2145594,43.048912 33.2145594,41.970812 L33.2145594,39.193512 C33.2145594,38.115412 32.3395594,37.240412 31.2614594,37.240412 C30.1833594,37.240412 29.3083594,38.115412 29.3083594,39.193512 Z M46.2533594,39.193512 L46.2533594,41.970812 C46.2533594,43.048912 47.1283594,43.923912 48.2064594,43.923912 C49.2845594,43.923912 50.1595594,43.048912 50.1595594,41.970812 L50.1595594,39.193512 C50.1595594,38.115412 49.2845594,37.240412 48.2064594,37.240412 C47.1283594,37.240412 46.2533594,38.115412 46.2533594,39.193512 Z" id="Shape"></path>
    <path d="M31.2609594,13.220512 C24.5656594,13.220512 12.9409594,15.755712 7.90195939,18.939312 C7.61289939,19.146342 7.45664939,19.494002 7.50351939,19.849472 C7.54648839,20.204942 7.78476939,20.501812 8.11679939,20.630722 C13.8003994,22.849522 16.5659994,23.279122 22.0897994,21.638522 C20.0389994,24.290822 19.2499994,25.673722 18.9999994,29.869022 C18.9804684,30.154182 19.0898434,30.431522 19.2968794,30.630742 C19.5039154,30.829962 19.7851594,30.927622 20.0703194,30.900272 C25.6289194,30.333862 30.5193194,27.673672 32.5393194,23.232272 C35.5432194,26.771372 36.3831194,29.896372 41.2463194,31.677572 C41.7189794,31.853352 42.2502194,31.634603 42.4651194,31.177572 C44.6565194,26.474472 43.5667194,22.974472 43.5667194,22.974472 C43.5667194,22.974472 50.3987194,26.072172 56.8987194,22.560412 C57.2112194,22.388532 57.4065294,22.056502 57.3989452,21.697132 C57.3948134,21.337752 57.1916894,21.013542 56.8713794,20.849472 C45.3793794,14.904172 38.3873794,13.212772 31.2663794,13.212772 L31.2609594,13.220512 Z" id="Path"></path>
  </g>
</svg>