<?xml version="1.0" encoding="UTF-8"?>
<svg width="416px" height="226px" viewBox="0 0 416 226" version="1.1" xmlns="http://www.w3.org/2000/svg" xmlns:xlink="http://www.w3.org/1999/xlink">
    <title>Group 2</title>
    <defs>
        <filter color-interpolation-filters="auto" id="filter-1">
            <feColorMatrix in="SourceGraphic" type="matrix" values="0 0 0 0 0.584314 0 0 0 0 0.431373 0 0 0 0 0.239216 0 0 0 1.000000 0"></feColorMatrix>
        </filter>
    </defs>
    <g id="Page-1" stroke="none" stroke-width="1" fill="none" fill-rule="evenodd">
        <g id="Group-2" transform="translate(-221.000000, -145.000000)" filter="url(#filter-1)">
            <g transform="translate(221.000000, 145.000000)">
                <path d="M43.7120975,69.69163 C46.5801743,69.69163 49.2956938,69.3513388 51.8586561,68.6707565 C54.4216184,67.9901741 56.6642104,66.9239285 58.5864321,65.4720195 C60.5086538,64.0201106 62.0265987,62.1598522 63.1402668,59.8912445 C64.253935,57.6226367 64.810769,54.9154315 64.810769,51.7696288 C64.810769,47.0811728 63.1173832,42.9674307 59.7306117,39.4284026 C59.0288482,38.7024481 58.2736897,38.0218658 57.4651361,37.3866557 C56.6565825,36.7514455 55.7793782,36.1011113 54.833523,35.435653 C53.8876679,34.7701947 52.8655341,34.0669263 51.7671217,33.3258478 C50.6687093,32.5847693 49.4940183,31.7605084 48.2430486,30.8530653 C46.1377582,29.3104121 44.3146987,27.9038753 42.7738702,26.6334549 C41.2330417,25.3630346 39.9515605,24.1379864 38.9294268,22.9583104 C37.907293,21.7786344 37.1521345,20.5989583 36.6639512,19.4192823 C36.1757679,18.2396063 35.9316763,16.9691859 35.9316763,15.6080213 C35.9316763,13.6721427 36.2978137,11.9555628 37.0300887,10.4582817 C37.7623636,8.9610006 38.7387302,7.69814228 39.9591884,6.66970677 C41.1796466,5.64127126 42.5908015,4.8623826 44.1926529,4.33304079 C45.7945043,3.80369899 47.4802622,3.53902808 49.2499267,3.53902808 C52.0569806,3.53902808 54.6809658,4.24985851 57.1218822,5.67151936 C57.2744395,6.36722574 57.3964853,7.10074224 57.4880197,7.87206888 C57.579554,8.64339551 57.6253212,9.4903424 57.6253212,10.4129096 C57.6253212,11.3354767 57.5719262,12.3185401 57.4651361,13.3620996 C57.358346,14.4056592 57.2134166,15.5021529 57.0303478,16.6515809 L57.0303478,16.6515809 L58.2660618,17.286791 C60.4018637,12.8705679 61.896925,8.3182284 62.7512458,3.62977239 C59.0593596,1.51240516 54.8792902,0.453721549 50.2110375,0.453721549 C47.6175638,0.453721549 45.0622294,0.824260814 42.5450343,1.56533934 C40.0278392,2.30641788 37.7699915,3.41047364 35.7714911,4.87750665 C33.7729908,6.34453966 32.1635115,8.17454991 30.9430533,10.3675374 C29.722595,12.5605249 29.1123659,15.1089276 29.1123659,18.0127455 C29.1123659,20.9770596 30.2184062,23.8960016 32.4304867,26.7695714 C34.6425673,29.6431412 38.1590125,32.6377034 42.9798225,35.7532581 C46.0004566,37.6891367 48.4413731,39.3527824 50.3025719,40.7441951 C52.1637707,42.1356079 53.6130648,43.4438383 54.6504543,44.6688865 C55.6878438,45.8939347 56.3896073,47.149231 56.7557447,48.4347754 C57.1218822,49.7203198 57.3049509,51.2251629 57.3049509,52.9493048 C57.3049509,55.2481606 56.9540692,57.2672215 56.2523057,59.0064875 C55.5505422,60.7457534 54.5818035,62.2052244 53.3460896,63.3849004 C52.1103756,64.5645765 50.6458257,65.4493335 48.95244,66.0391715 C47.2590542,66.6290095 45.420739,66.9239285 43.4374944,66.9239285 C40.1727686,66.9239285 36.8622757,66.0769816 33.5060155,64.3830878 C33.200901,63.8083739 33.0483437,62.2959687 33.0483437,59.8458723 C33.0483437,57.395776 33.2314124,55.3237809 33.5975499,53.6298871 L33.5975499,53.6298871 L32.361836,52.9493048 C30.3175684,57.1840392 28.8225071,61.7363788 27.876652,66.6063234 C33.2771796,68.6631944 38.5556615,69.69163 43.7120975,69.69163 Z M112.225571,68.5573261 L112.591709,67.4683944 C111.188182,67.2264095 110.028746,66.9163665 109.113403,66.5382652 C108.198059,66.1601639 107.465784,65.6686322 106.916578,65.0636702 C106.367372,64.4587081 105.978351,63.7176296 105.749515,62.8404346 C105.520679,61.9632396 105.406261,60.904556 105.406261,59.6643837 L105.406261,59.6643837 L105.406261,4.53721549 C107.816666,4.5674636 110.570325,4.64308385 113.667237,4.76407627 C116.76415,4.88506868 120.250084,5.0665573 124.125039,5.30854213 C124.308108,6.21598522 124.399642,7.22929668 124.399642,8.34847651 C124.399642,9.16517529 124.346247,10.0348083 124.239457,10.9573754 C124.132667,11.8799426 123.972481,12.8705679 123.758901,13.9292516 L123.758901,13.9292516 L125.269218,14.3829731 L129.571334,3.35753946 L129.022127,2.40472421 C123.346997,2.01149887 118.114282,1.71657986 113.323983,1.51996719 C108.533685,1.32335452 104.094268,1.22504818 100.005733,1.22504818 C95.917198,1.22504818 91.7828958,1.30823047 87.6028264,1.47459503 C83.422757,1.6409596 79.105386,1.92075456 74.6507135,2.3139799 L74.6507135,2.3139799 L74.1015073,3.35753946 L78.4036225,14.3829731 L79.9139396,13.9292516 C79.4867792,11.9026286 79.273199,10.0877424 79.273199,8.48459297 C79.273199,7.36541315 79.3647334,6.30672953 79.5478021,5.30854213 C83.5448028,5.0665573 87.0993874,4.88506868 90.2115558,4.76407627 C93.3237243,4.64308385 96.0392439,4.5674636 98.3581145,4.53721549 L98.3581145,4.53721549 L98.3581145,63.2941561 C98.3581145,65.6232601 98.0529999,67.2264095 97.4427708,68.1036045 L97.4427708,68.1036045 L97.7173739,68.5573261 C98.9988551,68.3153413 100.165918,68.1338526 101.218563,68.0128602 C102.271209,67.8918678 103.224692,67.8313716 104.079012,67.8313716 C104.994356,67.8313716 106.12328,67.8918678 107.465784,68.0128602 C108.808288,68.1338526 110.394884,68.3153413 112.225571,68.5573261 L112.225571,68.5573261 Z M161.104923,69.69163 C164.644252,69.69163 168.450556,68.8976172 172.523835,67.3095918 C176.597115,65.7215664 181.150949,63.1429156 186.18534,59.5736394 L186.18534,59.5736394 L186.18534,63.2941561 C186.18534,65.6232601 185.880225,67.2264095 185.269996,68.1036045 L185.269996,68.1036045 L185.544599,68.5573261 C186.82608,68.3153413 187.993143,68.1338526 189.045789,68.0128602 C190.098434,67.8918678 191.051917,67.8313716 191.906237,67.8313716 C192.821581,67.8313716 193.950505,67.8918678 195.293009,68.0128602 C196.635513,68.1338526 198.222109,68.3153413 200.052796,68.5573261 L200.052796,68.5573261 L200.464701,67.4683944 C199.061174,67.2264095 197.894111,66.9163665 196.963511,66.5382652 C196.032912,66.1601639 195.293009,65.6686322 194.743803,65.0636702 C194.194597,64.4587081 193.805576,63.7176296 193.57674,62.8404346 C193.347904,61.9632396 193.233486,60.904556 193.233486,59.6643837 L193.233486,59.6643837 L193.233486,7.25954479 C193.233486,5.38416238 192.913116,3.64489645 192.272375,2.04174697 C187.695657,2.04174697 182.920614,2.7828255 177.947247,4.26498256 L177.947247,4.26498256 L178.130315,5.12705351 C178.374407,5.0968054 178.999892,5.08168135 180.00677,5.08168135 C181.013648,5.08168135 181.959503,5.25560794 182.844335,5.60346113 C183.729167,5.95131432 184.415675,6.53359031 184.903858,7.3502891 C185.392042,8.16698789 185.727668,9.24835758 185.910736,10.5943982 C186.093805,11.9404388 186.18534,13.6116465 186.18534,15.6080213 L186.18534,15.6080213 L186.18534,56.0346113 C184.537721,57.4562722 182.775684,58.7796267 180.89923,60.0046749 C179.022775,61.2297231 177.100554,62.2884067 175.132565,63.1807257 C173.164576,64.0730448 171.196587,64.7687511 169.228598,65.2678449 C167.260609,65.7669386 165.361271,66.0164854 163.530584,66.0164854 C161.608362,66.0164854 159.846325,65.7366905 158.244474,65.1771005 C156.642623,64.6175106 155.269607,63.6722574 154.125428,62.3413409 C152.981248,61.0104243 152.088788,59.2333482 151.448047,57.0101127 C150.807307,54.7868771 150.486936,52.0116136 150.486936,48.6843222 L150.486936,48.6843222 L150.486936,7.25954479 C150.486936,5.5051548 150.181822,3.76588886 149.571593,2.04174697 C144.964363,2.04174697 140.174064,2.7828255 135.200697,4.26498256 L135.200697,4.26498256 L135.383766,5.12705351 C135.627858,5.0968054 136.253342,5.08168135 137.26022,5.08168135 C138.267098,5.08168135 139.212954,5.25560794 140.097786,5.60346113 C140.982618,5.95131432 141.669126,6.53359031 142.157309,7.3502891 C142.645492,8.16698789 142.981118,9.24835758 143.164187,10.5943982 C143.347256,11.9404388 143.43879,13.6116465 143.43879,15.6080213 L143.43879,15.6080213 L143.43879,54.4465859 C143.43879,57.3806519 143.965113,59.8231863 145.017758,61.7741889 C146.070403,63.7251916 147.435791,65.2905309 149.113921,66.470207 C150.792051,67.649883 152.683761,68.4817058 154.789052,68.9656755 C156.894342,69.4496451 158.999633,69.69163 161.104923,69.69163 Z M220.236124,68.6480704 C221.670162,68.4665818 223.348292,68.3002172 225.270514,68.1489767 C227.192736,67.9977362 229.00054,67.9145539 230.693925,67.8994298 C231.925479,67.8884305 232.789886,67.881431 233.287147,67.8784312 L233.691676,67.8767438 C237.383562,67.8767438 241.029681,67.6196349 244.630033,67.1054171 C248.230385,66.5911994 251.647668,65.7593765 254.881882,64.6099486 C258.116096,63.4605207 261.113847,61.9632396 263.875133,60.1181053 C266.63642,58.272971 269.023942,56.0346113 271.037698,53.4030263 C273.051454,50.7714414 274.622794,47.7163829 275.751718,44.237851 C276.880641,40.7593192 277.460359,36.7968176 277.490871,32.3503465 C277.490871,28.5995817 277.086594,25.2571662 276.27804,22.3231002 C275.469487,19.3890342 274.332935,16.8179454 272.868385,14.6098339 C271.403835,12.4017223 269.657054,10.533902 267.628042,9.00637275 C265.599031,7.47884354 263.379322,6.26135738 260.968917,5.35391428 C259.168741,4.68845601 257.452472,4.12130407 255.820109,3.65245847 C254.187746,3.18361287 252.524872,2.80551158 250.831486,2.5181546 C249.1381,2.23079762 247.345552,2.02662292 245.453842,1.90563051 C243.562132,1.78463809 241.472097,1.72414189 239.183738,1.72414189 C236.529241,1.72414189 234.149348,1.76951404 232.044057,1.86025835 C229.938767,1.95100266 227.894499,2.08711913 225.911255,2.26860775 C223.92801,2.45009637 221.883743,2.66939511 219.778452,2.92650399 C217.673162,3.18361287 215.293268,3.47853188 212.638772,3.81126101 L212.638772,3.81126101 L212.82184,5.12705351 C213.065932,5.0968054 213.294768,5.08168135 213.508348,5.08168135 L213.508348,5.08168135 L215.018665,5.08168135 C215.811963,5.08168135 216.651028,5.25560794 217.53586,5.60346113 C218.420692,5.95131432 219.1072,6.53359031 219.595383,7.3502891 C220.083567,8.16698789 220.419193,9.24835758 220.602261,10.5943982 C220.78533,11.9404388 220.876865,13.6116465 220.876865,15.6080213 L220.876865,15.6080213 L220.876865,63.3849004 C220.876865,65.7140044 220.57175,67.3171538 219.961521,68.1943488 L219.961521,68.1943488 L220.236124,68.6480704 Z M237.169982,64.4738321 C235.705432,64.4738321 234.210371,64.420898 232.684798,64.3150296 C231.159225,64.2091612 229.572629,64.0503587 227.925011,63.838622 L227.925011,63.838622 L227.925011,7.3502891 C227.925011,7.10830427 227.909755,6.81338526 227.879244,6.46553208 C227.848732,6.11767889 227.802965,5.73201557 227.741942,5.30854213 C229.175981,5.15730161 230.579507,5.0363092 231.952523,4.94556489 C233.325538,4.85482058 234.698554,4.80944842 236.071569,4.80944842 C238.939646,4.80944842 241.769584,4.99093704 244.561382,5.35391428 C247.35318,5.71689152 250.007677,6.32941561 252.524872,7.19148655 C255.042067,8.0535575 257.376193,9.17273732 259.527251,10.549026 C261.678309,11.9253147 263.547135,13.6343326 265.133731,15.6760795 C266.720327,17.7178265 267.956041,20.1149887 268.840873,22.8675661 C269.725705,25.6201435 270.183377,28.7810703 270.213888,32.3503465 C270.213888,37.7647569 269.45873,42.475899 267.948413,46.4837727 C266.438096,50.4916464 264.264154,53.8340618 261.426589,56.511019 C258.589024,59.1879761 255.125974,61.1843509 251.037438,62.5001434 C246.948903,63.8159359 242.326418,64.4738321 237.169982,64.4738321 Z M311.358586,68.5573261 L311.724724,67.4683944 C308.91767,66.9541766 307.010704,66.1374778 306.003826,65.018298 C304.996948,63.8991182 304.493509,62.1144801 304.493509,59.6643837 L304.493509,59.6643837 L304.493509,7.25954479 C304.493509,5.44465859 304.188394,3.70539265 303.578165,2.04174697 C299.06247,2.04174697 294.287427,2.7828255 289.253037,4.26498256 L289.253037,4.26498256 L289.436105,5.12705351 C292.731343,4.88506868 294.897656,5.5051548 295.935045,6.98731186 C296.972435,8.46946892 297.49113,11.3430387 297.49113,15.6080213 L297.49113,15.6080213 L297.49113,63.2941561 C297.49113,65.6232601 297.170759,67.2264095 296.530019,68.1036045 L296.530019,68.1036045 L296.850389,68.5573261 C299.59642,68.0431083 301.854268,67.8011235 303.623932,67.8313716 C305.393597,67.8616197 307.971815,68.1036045 311.358586,68.5573261 L311.358586,68.5573261 Z M355.249315,69.69163 C359.55143,69.69163 363.662849,68.8522451 367.583571,67.1734754 C371.504293,65.4947056 374.913948,63.1882878 377.812537,60.2542217 C380.711125,57.3201557 383.01474,53.7508795 384.723381,49.5463932 C386.432023,45.3419068 387.286344,40.8500635 387.286344,36.0708632 C387.286344,24.7883206 384.540313,15.9558745 379.048251,9.57352469 C373.556189,3.1911749 365.714744,0 355.523918,0 C351.221803,0 347.102757,0.892319047 343.166779,2.67695714 C339.230801,4.46159523 335.821146,6.87388147 332.937813,9.91381585 C330.054481,12.9537502 327.750866,16.6213328 326.026969,20.9165634 C324.303071,25.2117941 323.441123,29.7641336 323.441123,34.573582 C323.441123,40.0182406 324.249676,44.9713676 325.866783,49.4329628 C327.483891,53.894558 329.718855,57.5923886 332.571676,60.5264547 C335.424497,63.4605207 338.788385,65.7215664 342.66334,67.3095918 C346.538295,68.8976172 350.73362,69.69163 355.249315,69.69163 Z M356.530796,67.1961614 C353.937323,67.1961614 351.435383,66.7953741 349.024978,65.9937993 C346.614573,65.1922246 344.318586,63.9142422 342.137017,62.1598522 C339.955448,60.4054622 338.05611,58.2578469 336.439003,55.7170062 C334.821896,53.1761656 333.532787,50.0530489 332.571676,46.3476563 C331.610565,42.6422636 331.13001,38.5663317 331.13001,34.1198605 C331.13001,29.9153741 331.633449,25.9453106 332.640327,22.2096698 C333.647205,18.4740291 335.096499,15.1542997 336.988209,12.2504818 C338.879919,9.34666391 341.328464,7.04024604 344.333842,5.3312282 C347.33922,3.62221037 350.718364,2.76770145 354.471273,2.76770145 C357.797022,2.76770145 360.94733,3.47853188 363.922196,4.90019273 C366.897063,6.32185359 369.559188,8.38628663 371.90857,11.0934919 C374.257952,13.8006971 376.126779,17.3472872 377.51505,21.7332622 C378.903321,26.1192372 379.597457,31.049678 379.597457,36.5245847 C379.597457,40.7290711 379.109274,44.6613245 378.132907,48.321345 C377.15654,51.9813655 375.737758,55.2254746 373.876559,58.0536722 C372.01536,60.8818699 369.597327,63.1126675 366.62246,64.7460651 C363.647593,66.3794626 360.283705,67.1961614 356.530796,67.1961614 Z" id="STUDIO" fill="#000000" fill-rule="nonzero"></path>
                <path d="M30.0821095,224.865696 L30.494234,223.776764 C27.6856814,223.262547 25.7776973,222.445848 24.7702817,221.326668 C23.7628661,220.207488 23.2591583,218.42285 23.2591583,215.972754 L23.2591583,215.972754 L23.2591583,163.567915 C23.2591583,161.692532 22.938617,159.953266 22.2975343,158.350117 C17.7794279,158.350117 13.0018357,159.091196 7.96475771,160.573353 L7.96475771,160.573353 L8.14792418,161.435424 C11.4754485,161.193439 13.6505503,161.813525 14.6732298,163.295682 C15.6959093,164.777839 16.207249,167.651409 16.207249,171.916391 L16.207249,171.916391 L16.207249,219.602526 C16.207249,221.93163 15.9019716,223.53478 15.2914167,224.411975 L15.2914167,224.411975 L15.5661664,224.865696 C18.3441912,224.351478 20.6032444,224.109494 22.3433259,224.139742 C24.0834074,224.16999 26.6630019,224.411975 30.0821095,224.865696 L30.0821095,224.865696 Z M55.221708,224.95644 C56.5344011,224.563215 58.0149968,224.32123 59.663495,224.230486 C61.3119933,224.139742 62.662846,224.124618 63.7160533,224.185114 C64.7692605,224.24561 66.3490713,224.381726 68.4554858,224.593463 L68.4554858,224.593463 L68.4554858,223.776764 C64.6089898,222.506344 60.8846049,219.874759 57.2823309,215.882009 L57.2823309,215.882009 L30.7689837,186.027132 L30.7689837,185.301177 L55.4048745,160.30112 C55.6185687,159.696158 55.588041,159.197064 55.3132913,158.803839 C51.7720728,158.380365 47.4066051,158.501358 42.2168884,159.166816 L42.2168884,159.166816 L42.4916381,160.391864 C44.2927751,160.331368 45.987065,160.512856 47.5745077,160.93633 C49.4061725,161.420299 49.9861996,162.010138 49.3145892,162.705844 L49.3145892,162.705844 L24.6786985,187.88739 L24.6786985,188.840205 L53.4358349,222.097995 C54.260084,223.096182 54.6416809,223.928005 54.5806254,224.593463 L54.5806254,224.593463 L55.221708,224.95644 Z M97.1668306,226 C100.708049,226 104.516385,225.205987 108.591839,223.617962 C112.667293,222.029936 117.22356,219.451286 122.260638,215.882009 L122.260638,215.882009 L122.260638,219.602526 C122.260638,221.93163 121.95536,223.53478 121.344805,224.411975 L121.344805,224.411975 L121.619555,224.865696 C122.90172,224.623711 124.069406,224.442223 125.122614,224.32123 C126.175821,224.200238 127.129813,224.139742 127.98459,224.139742 C128.900422,224.139742 130.029949,224.200238 131.37317,224.32123 C132.71639,224.442223 134.303833,224.623711 136.135498,224.865696 L136.135498,224.865696 L136.547623,223.776764 C135.143346,223.53478 133.97566,223.224737 133.044564,222.846635 C132.113467,222.468534 131.37317,221.977002 130.82367,221.37204 C130.274171,220.767078 129.884942,220.026 129.655984,219.148805 C129.427026,218.27161 129.312547,217.212926 129.312547,215.972754 L129.312547,215.972754 L129.312547,163.567915 C129.312547,161.692532 128.992005,159.953266 128.350923,158.350117 C123.771761,158.350117 118.994169,159.091196 114.018146,160.573353 L114.018146,160.573353 L114.201313,161.435424 C114.445535,161.405175 115.071353,161.390051 116.078769,161.390051 C117.086185,161.390051 118.032545,161.563978 118.917849,161.911831 C119.803154,162.259684 120.490028,162.84196 120.978472,163.658659 C121.466916,164.475358 121.802721,165.556728 121.985888,166.902768 C122.169054,168.248809 122.260638,169.920017 122.260638,171.916391 L122.260638,171.916391 L122.260638,212.342981 C120.612139,213.764642 118.849162,215.087997 116.971706,216.313045 C115.094249,217.538093 113.171001,218.596777 111.201962,219.489096 C109.232922,220.381415 107.263882,221.077121 105.294843,221.576215 C103.325803,222.075309 101.425451,222.324855 99.5937864,222.324855 C97.6705384,222.324855 95.9075611,222.04506 94.3048544,221.485471 C92.7021478,220.925881 91.3283992,219.980627 90.1836088,218.649711 C89.0388183,217.318794 88.1458818,215.541718 87.5047991,213.318483 C86.8637164,211.095247 86.5431751,208.319984 86.5431751,204.992692 L86.5431751,204.992692 L86.5431751,163.567915 C86.5431751,161.813525 86.2378977,160.074259 85.6273427,158.350117 C81.0176531,158.350117 76.2247971,159.091196 71.2487745,160.573353 L71.2487745,160.573353 L71.431941,161.435424 C71.676163,161.405175 72.3019817,161.390051 73.3093974,161.390051 C74.316813,161.390051 75.2631731,161.563978 76.1484777,161.911831 C77.0337823,162.259684 77.7206566,162.84196 78.2091005,163.658659 C78.6975445,164.475358 79.0333497,165.556728 79.2165161,166.902768 C79.3996826,168.248809 79.4912659,169.920017 79.4912659,171.916391 L79.4912659,171.916391 L79.4912659,210.754956 C79.4912659,213.689022 80.0178695,216.131556 81.0710767,218.082559 C82.1242839,220.033562 83.4904005,221.598901 85.1694266,222.778577 C86.8484526,223.958253 88.7411728,224.790076 90.8475872,225.274046 C92.9540017,225.758015 95.0604162,226 97.1668306,226 Z M187.284736,225.909256 L210.821628,167.46992 L216.179247,220.237736 C216.423469,222.476096 216.255567,224.079245 215.675539,225.047185 L215.675539,225.047185 L215.996081,225.546278 C218.194078,224.820324 220.269965,224.381726 222.223741,224.230486 C224.177517,224.079245 226.90975,224.048997 230.420441,224.139742 L230.420441,224.139742 L230.69519,223.005438 C227.825582,222.793701 225.841279,222.181177 224.74228,221.167866 C223.643281,220.154554 223.002198,218.42285 222.819032,215.972754 L222.819032,215.972754 L216.728747,157.98714 C214.164416,158.410613 211.783252,159.423925 209.585254,161.027074 L209.585254,161.027074 L187.834235,214.747706 C186.429959,211.81364 181.98054,202.088874 174.485978,185.57341 C166.991417,169.057946 162.877803,159.983515 162.145137,158.350117 C158.390225,158.350117 154.238451,159.620537 149.689817,162.161378 L149.689817,162.161378 L150.239316,163.068821 C151.368843,162.796588 152.559425,162.683158 153.811063,162.72853 C155.0627,162.773902 156.115908,163.144441 156.970684,163.840148 L156.970684,163.840148 L150.05615,223.232299 C150.178261,223.595276 150.361427,223.897757 150.605649,224.139742 C153.414202,224.018749 157.321753,224.139742 162.328304,224.502719 L162.328304,224.502719 L162.51147,223.68602 C160.313473,223.262547 158.657342,222.771015 157.54308,222.211425 C156.428817,221.651835 155.726679,221.046873 155.436665,220.396539 C155.146652,219.746205 155.0627,218.891696 155.184811,217.833012 L155.184811,217.833012 L160.542431,169.420923 L181.4692,215.292171 C183.087171,219.224425 183.957212,222.264359 184.079323,224.411975 L184.079323,224.411975 L187.284736,225.909256 Z M264.07728,224.865696 L264.443613,223.776764 C261.63506,223.262547 259.727076,222.445848 258.719661,221.326668 C257.712245,220.207488 257.208537,218.42285 257.208537,215.972754 L257.208537,215.972754 L257.208537,163.567915 C257.208537,161.753029 256.90326,160.013763 256.292705,158.350117 C251.774599,158.350117 246.997006,159.091196 241.959928,160.573353 L241.959928,160.573353 L242.143095,161.435424 C245.440091,161.193439 247.607561,161.813525 248.645505,163.295682 C249.683448,164.777839 250.20242,167.651409 250.20242,171.916391 L250.20242,171.916391 L250.20242,219.602526 C250.20242,221.93163 249.881878,223.53478 249.240796,224.411975 L249.240796,224.411975 L249.561337,224.865696 C252.308834,224.351478 254.567887,224.109494 256.338497,224.139742 C258.109106,224.16999 260.6887,224.411975 264.07728,224.865696 L264.07728,224.865696 Z M297.825703,224.865696 L298.237828,223.776764 C295.429275,223.262547 293.521291,222.445848 292.513875,221.326668 C291.50646,220.207488 291.002752,218.42285 291.002752,215.972754 L291.002752,215.972754 L291.002752,163.567915 C291.002752,161.692532 290.682211,159.953266 290.041128,158.350117 C285.523021,158.350117 280.745429,159.091196 275.708351,160.573353 L275.708351,160.573353 L275.891518,161.435424 C279.219042,161.193439 281.394144,161.813525 282.416823,163.295682 C283.439503,164.777839 283.950843,167.651409 283.950843,171.916391 L283.950843,171.916391 L283.950843,219.602526 C283.950843,221.93163 283.645565,223.53478 283.03501,224.411975 L283.03501,224.411975 L283.30976,224.865696 C286.087785,224.351478 288.346838,224.109494 290.086919,224.139742 C291.827001,224.16999 294.406595,224.411975 297.825703,224.865696 L297.825703,224.865696 Z M322.965302,224.95644 C324.277995,224.563215 325.75859,224.32123 327.407089,224.230486 C329.055587,224.139742 330.40644,224.124618 331.459647,224.185114 C332.512854,224.24561 334.092665,224.381726 336.199079,224.593463 L336.199079,224.593463 L336.199079,223.776764 C332.352583,222.506344 328.628198,219.874759 325.025924,215.882009 L325.025924,215.882009 L298.512577,186.027132 L298.512577,185.301177 L323.148468,160.30112 C323.362162,159.696158 323.331635,159.197064 323.056885,158.803839 C319.515666,158.380365 315.150199,158.501358 309.960482,159.166816 L309.960482,159.166816 L310.235232,160.391864 C312.036369,160.331368 313.730659,160.512856 315.318101,160.93633 C317.149766,161.420299 317.729793,162.010138 317.058183,162.705844 L317.058183,162.705844 L292.422292,187.88739 L292.422292,188.840205 L321.179428,222.097995 C322.003678,223.096182 322.385274,223.928005 322.324219,224.593463 L322.324219,224.593463 L322.965302,224.95644 Z M373.152915,226 C377.457328,226 381.570941,225.160615 385.493757,223.481845 C389.416572,221.803076 392.828048,219.496658 395.728183,216.562592 C398.628319,213.628526 400.933164,210.05925 402.642718,205.854763 C404.352272,201.650277 405.207048,197.158434 405.207048,192.379233 C405.207048,181.096691 402.459551,172.264245 396.964557,165.881895 C391.469563,159.499545 383.623932,156.30837 373.427665,156.30837 C369.123253,156.30837 365.002007,157.200689 361.063928,158.985327 C357.125849,160.769965 353.714373,163.182252 350.829501,166.222186 C347.944629,169.26212 345.639785,172.929703 343.914967,177.224933 C342.190149,181.520164 341.327741,186.072504 341.327741,190.881952 C341.327741,196.326611 342.136726,201.279738 343.754696,205.741333 C345.372667,210.202928 347.608824,213.900759 350.463169,216.834825 C353.317513,219.768891 356.683197,222.029936 360.56022,223.617962 C364.437244,225.205987 368.634809,226 373.152915,226 Z M374.435081,223.504531 C371.840222,223.504531 369.336947,223.103744 366.925255,222.302169 C364.513563,221.500595 362.216351,220.222612 360.033617,218.468222 C357.850883,216.713832 355.950531,214.566217 354.33256,212.025376 C352.71459,209.484536 351.424792,206.361419 350.463169,202.656026 C349.501545,198.950634 349.020733,194.874702 349.020733,190.428231 C349.020733,186.223744 349.52444,182.253681 350.531856,178.51804 C351.539272,174.782399 352.989339,171.46267 354.88206,168.558852 C356.77478,165.655034 359.224632,163.348616 362.231614,161.639598 C365.238597,159.93058 368.619545,159.076071 372.374458,159.076071 C375.701982,159.076071 378.853972,159.786902 381.830427,161.208563 C384.806882,162.630224 387.470428,164.694657 389.821065,167.401862 C392.171701,170.109067 394.041525,173.655657 395.430538,178.041632 C396.81955,182.427607 397.514057,187.358048 397.514057,192.832955 C397.514057,197.037441 397.025613,200.969695 396.048725,204.629715 C395.071837,208.289736 393.652297,211.533845 391.790104,214.362042 C389.927912,217.19024 387.508588,219.421038 384.532133,221.054435 C381.555677,222.687833 378.189994,223.504531 374.435081,223.504531 Z" id="KUMIKO" fill="#000000" fill-rule="nonzero"></path>
                <polygon id="Line" fill="#000000" fill-rule="nonzero" points="193 113 193 116.982379 0 116.982379 0 113"></polygon>
                <polygon id="Line-Copy-2" fill="#000000" fill-rule="nonzero" points="416 114 416 117.98 223 117.98 223 114"></polygon>
                <path d="M214.438968,100.599448 L200.707323,100.599448 C195.65147,100.599448 191.552892,104.698026 191.552892,109.753878 L191.552892,123.485524 C191.552892,128.541376 195.65147,132.639954 200.707323,132.639954 L214.438968,132.639954 C219.494821,132.639954 223.593399,128.541376 223.593399,123.485524 L223.593399,109.753878 C223.593399,104.698026 219.494821,100.599448 214.438968,100.599448 Z M200.707323,105.176663 L214.438968,105.176663 C216.966895,105.176663 219.016184,107.225952 219.016184,109.753878 L219.016184,123.485524 C219.016184,126.01345 216.966895,128.062739 214.438968,128.062739 L200.707323,128.062739 C198.179397,128.062739 196.130108,126.01345 196.130108,123.485524 L196.130108,109.753878 C196.130108,107.225952 198.179397,105.176663 200.707323,105.176663 Z" id="Rectangle" fill="#000000" fill-rule="nonzero" transform="translate(207.573146, 116.619701) rotate(-315.000000) translate(-207.573146, -116.619701) "></path>
            </g>
        </g>
    </g>
</svg>